# xmcd CD database file
#
# Track frame offsets:
#	150
#	13406
#	23294
#	38092
#	47225
#	64325
#	77913
#	87715
#	110039
#	125484
#	143534
#
# Disc length: 2046 seconds
#
# Revision: 0
# Processed by: cddbd v1.5.2PL0 Copyright (c) Steve Scherf et al.
# Submitted via: CDex 1.70beta2
#
DISCID=9507fc0b
DTITLE=Lilly Margot - dans des vallées
DYEAR=2003
DGENRE=New Age
TTITLE0=a la maison
TTITLE1=l'heure d'été
TTITLE2=les etangs
TTITLE3=sur des sofas
TTITLE4=la ballade d'icare
TTITLE5=sisyphe
TTITLE6=octobre
TTITLE7=le vin doux
TTITLE8=les phalénes
TTITLE9=dans des vallées
TTITLE10=a la campagne
EXTD=YEAR: 2003
EXTT0=
EXTT1=
EXTT2=
EXTT3=
EXTT4=
EXTT5=
EXTT6=
EXTT7=
EXTT8=
EXTT9=
EXTT10=
PLAYORDER=
